<svg width="152" height="124" viewBox="0 0 152 124" fill="none" xmlns="http://www.w3.org/2000/svg">
<path d="M141.012 48C110.504 -7.99996 5.01172 3.00001 0.0107422 89.5C-1.57326 140.964 171.52 104 141.012 48Z" fill="#FCA8C0"/>
<g filter="url(#filter0_d_151_117)">
<path d="M144.516 63.4989C144.516 72.9989 135.016 84.4989 117.516 95.4989C104.525 102.841 87.4377 107.926 73.5152 110.719C32.599 118.927 16.0107 112.5 14.0124 100.5C14.0124 88.5 42.1844 82.0304 68.5196 72.499C99.5203 64.9991 134.515 57.9991 144.516 63.4989Z" fill="#C46F85"/>
</g>
<path d="M76.4365 30.7747C79.4351 31.7748 85.938 36.2747 85.938 37.2747C85.938 37.2747 86.3652 38.5493 85.938 39.7747C85.5107 41 79.653 40.976 75.9365 39.7747C72.8447 38.7752 69.4379 36.2747 68.9379 35.2747C68.4379 34.2746 67.4395 30.6477 68.4379 30.2747C69.4364 29.9017 73.4379 29.7747 76.4365 30.7747Z" fill="black" fill-opacity="0.5"/>
<path d="M57.5107 45.5773C59.5079 46.5774 61.5075 49.5774 62.0079 50.5774C62.5083 51.5774 61.5078 54.0774 59.0079 54.0774C56.508 54.0774 55.5078 51.0773 55.5078 51.0773C54.5078 49.5774 53.2695 49.5525 52.0078 50.5774C52.0078 50.5774 50.5082 53.5774 49.5078 54.5774C48.5074 55.5774 45.0108 54.0773 45.0107 52.5773C45.0107 51.0773 47.5103 46.0774 50.0078 45.5774C52.5054 45.0774 55.5136 44.5773 57.5107 45.5773Z" fill="black" fill-opacity="0.5"/>
<path d="M28.2767 46.1274C29.2767 44.6274 34.7767 36.6275 36.2767 36.1274C37.7767 35.6274 40.2767 36.6274 40.2767 38.6274C40.2767 40.6275 33.2767 48.6274 31.2767 49.1274C29.2767 49.6274 27.2767 47.6274 28.2767 46.1274Z" fill="black" fill-opacity="0.5"/>
<path d="M102.311 1.53372C102.993 2.24501 103.521 3.37496 104.01 5.06906C103.995 6.4099 103.545 7.37538 102.796 8.0711C102.026 8.78577 100.897 9.25665 99.4704 9.49975C98.3081 9.48533 97.3334 8.84855 96.6285 7.88647C95.9119 6.90838 95.5107 5.63702 95.5107 4.5C95.5107 2.27023 97.0456 0.5 99.5107 0.5C100.789 0.5 101.646 0.841137 102.311 1.53372Z" fill="#FCA8C0" stroke="#B2B2B2"/>
<defs>
<filter id="filter0_d_151_117" x="13.0127" y="60.5303" width="131.504" height="53.8729" filterUnits="userSpaceOnUse" color-interpolation-filters="sRGB">
<feFlood flood-opacity="0" result="BackgroundImageFix"/>
<feColorMatrix in="SourceAlpha" type="matrix" values="0 0 0 0 0 0 0 0 0 0 0 0 0 0 0 0 0 0 127 0" result="hardAlpha"/>
<feOffset dx="-1" dy="-1"/>
<feComposite in2="hardAlpha" operator="out"/>
<feColorMatrix type="matrix" values="0 0 0 0 0.65 0 0 0 0 0.65 0 0 0 0 0.65 0 0 0 0.53 0"/>
<feBlend mode="normal" in2="BackgroundImageFix" result="effect1_dropShadow_151_117"/>
<feBlend mode="normal" in="SourceGraphic" in2="effect1_dropShadow_151_117" result="shape"/>
</filter>
</defs>
</svg>
